<svg width="134" height="61" viewBox="0 0 134 61" fill="none" xmlns="http://www.w3.org/2000/svg">
<path d="M6.04594 58.2537L5.47439 56.931H2.61666L2.05328 58.2537H0.959175L3.53113 52.5383H4.57625L7.15637 58.2537H6.04594ZM2.97592 56.0982H5.1233L4.04553 53.5997L2.97592 56.0982ZM10.995 52.1953H12.0157V58.2537H11.0359V57.6903C10.6929 58.1068 10.1867 58.3109 9.59067 58.3109C8.32511 58.3109 7.38614 57.4291 7.38614 56.0737C7.38614 54.7183 8.32511 53.8447 9.59067 53.8447C10.1541 53.8447 10.6521 54.0324 10.995 54.4325V52.1953ZM9.71315 57.4372C10.448 57.4372 11.0114 56.9065 11.0114 56.0737C11.0114 55.2409 10.448 54.7101 9.71315 54.7101C8.9783 54.7101 8.41492 55.2409 8.41492 56.0737C8.41492 56.9065 8.9783 57.4372 9.71315 57.4372ZM16.4535 53.8936H17.4333L15.5635 58.2537H14.5102L12.6405 53.8936H13.7019L15.0573 57.127L16.4535 53.8936ZM19.6013 53.8447C20.8587 53.8447 21.5854 54.4407 21.5854 55.6981V58.2537H20.6219V57.723C20.377 58.0986 19.9034 58.3109 19.2502 58.3109C18.2541 58.3109 17.6254 57.7638 17.6254 57.0045C17.6254 56.2778 18.1153 55.7063 19.438 55.7063H20.5647V55.6409C20.5647 55.0449 20.2055 54.6938 19.4788 54.6938C18.9889 54.6938 18.4827 54.8571 18.1561 55.1265L17.756 54.3835C18.2214 54.0243 18.8991 53.8447 19.6013 53.8447ZM19.4625 57.5679C19.9605 57.5679 20.3933 57.3392 20.5647 56.8902V56.384H19.5115C18.8174 56.384 18.6297 56.6452 18.6297 56.9637C18.6297 57.3311 18.9399 57.5679 19.4625 57.5679ZM25.3692 53.8447C26.4143 53.8447 27.19 54.4407 27.19 55.7552V58.2537H26.1693V55.8859C26.1693 55.1102 25.7856 54.7346 25.1324 54.7346C24.4057 54.7346 23.9158 55.1755 23.9158 56.0492V58.2537H22.8952V53.8936H23.8668V54.457C24.2016 54.0569 24.7323 53.8447 25.3692 53.8447ZM30.525 58.3109C29.1451 58.3109 28.1653 57.3801 28.1653 56.0737C28.1653 54.7673 29.1451 53.8447 30.525 53.8447C31.3741 53.8447 32.0518 54.1957 32.3866 54.8571L31.6027 55.3143C31.3415 54.8979 30.9495 54.7101 30.5168 54.7101C29.7656 54.7101 29.1941 55.2327 29.1941 56.0737C29.1941 56.9228 29.7656 57.4372 30.5168 57.4372C30.9495 57.4372 31.3415 57.2494 31.6027 56.833L32.3866 57.2903C32.0518 57.9435 31.3741 58.3109 30.525 58.3109ZM37.3038 56.0982C37.3038 56.1798 37.2957 56.3023 37.2875 56.4003H33.8664C33.9889 57.0371 34.5196 57.4454 35.2789 57.4454C35.7688 57.4454 36.1526 57.2903 36.4629 56.9718L37.0099 57.6005C36.618 58.0659 36.0056 58.3109 35.2544 58.3109C33.7929 58.3109 32.8458 57.3719 32.8458 56.0737C32.8458 54.7755 33.8011 53.8447 35.0993 53.8447C36.373 53.8447 37.3038 54.7346 37.3038 56.0982ZM35.0993 54.6611C34.4379 54.6611 33.9562 55.0857 33.8582 55.7226H36.3322C36.2506 55.0939 35.7688 54.6611 35.0993 54.6611ZM41.5339 52.1953H42.5545V58.2537H41.5747V57.6903C41.2318 58.1068 40.7255 58.3109 40.1295 58.3109C38.8639 58.3109 37.925 57.4291 37.925 56.0737C37.925 54.7183 38.8639 53.8447 40.1295 53.8447C40.6929 53.8447 41.1909 54.0324 41.5339 54.4325V52.1953ZM40.252 57.4372C40.9868 57.4372 41.5502 56.9065 41.5502 56.0737C41.5502 55.2409 40.9868 54.7101 40.252 54.7101C39.5171 54.7101 38.9537 55.2409 38.9537 56.0737C38.9537 56.9065 39.5171 57.4372 40.252 57.4372ZM50.4164 53.4282H47.3056V55.1674H50.0653V56.0655H47.3056V58.2537H46.2441V52.5383H50.4164V53.4282ZM51.3449 58.2537V52.1953H52.3656V58.2537H51.3449ZM55.3708 53.8447C56.6282 53.8447 57.3549 54.4407 57.3549 55.6981V58.2537H56.3914V57.723C56.1464 58.0986 55.6729 58.3109 55.0197 58.3109C54.0236 58.3109 53.3949 57.7638 53.3949 57.0045C53.3949 56.2778 53.8847 55.7063 55.2075 55.7063H56.3342V55.6409C56.3342 55.0449 55.975 54.6938 55.2483 54.6938C54.7584 54.6938 54.2522 54.8571 53.9256 55.1265L53.5255 54.3835C53.9909 54.0243 54.6686 53.8447 55.3708 53.8447ZM55.232 57.5679C55.73 57.5679 56.1628 57.3392 56.3342 56.8902V56.384H55.281C54.5869 56.384 54.3991 56.6452 54.3991 56.9637C54.3991 57.3311 54.7094 57.5679 55.232 57.5679ZM61.6876 53.8936H62.6674L60.7977 58.2537H59.7444L57.8746 53.8936H58.936L60.2914 57.127L61.6876 53.8936ZM65.1453 58.3109C63.8062 58.3109 62.8264 57.3801 62.8264 56.0737C62.8264 54.7673 63.8062 53.8447 65.1453 53.8447C66.5007 53.8447 67.4723 54.7673 67.4723 56.0737C67.4723 57.3801 66.5007 58.3109 65.1453 58.3109ZM65.1453 57.4372C65.8883 57.4372 66.4435 56.9065 66.4435 56.0737C66.4435 55.2409 65.8883 54.7101 65.1453 54.7101C64.4104 54.7101 63.8552 55.2409 63.8552 56.0737C63.8552 56.9065 64.4104 57.4372 65.1453 57.4372ZM69.4199 54.5305C69.7138 54.0733 70.2446 53.8447 70.9712 53.8447V54.8163C70.8814 54.8 70.8079 54.7918 70.7345 54.7918C69.9588 54.7918 69.4689 55.249 69.4689 56.139V58.2537H68.4483V53.8936H69.4199V54.5305ZM73.2002 58.3109C72.4735 58.3109 71.7468 58.0986 71.3549 57.821L71.7468 57.0453C72.1306 57.2984 72.7185 57.4781 73.2655 57.4781C73.9106 57.4781 74.18 57.2984 74.18 56.9963C74.18 56.1635 71.4856 56.9473 71.4856 55.2082C71.4856 54.3835 72.2286 53.8447 73.4043 53.8447C73.984 53.8447 74.6454 53.9835 75.0373 54.2202L74.6454 54.9959C74.229 54.751 73.8126 54.6693 73.3962 54.6693C72.7756 54.6693 72.4817 54.8734 72.4817 55.1592C72.4817 56.041 75.1761 55.2572 75.1761 56.9637C75.1761 57.7802 74.4249 58.3109 73.2002 58.3109ZM83.2596 57.6822L82.6962 58.3435L81.9777 57.6495C81.4633 58.0904 80.8101 58.3354 80.0589 58.3354C78.8505 58.3354 77.9768 57.7067 77.9768 56.8085C77.9768 56.0982 78.3687 55.6001 79.2996 55.0776C78.8341 54.6122 78.6627 54.2366 78.6627 53.8202C78.6627 53.02 79.3159 52.4729 80.3202 52.4729C81.2428 52.4729 81.847 52.9547 81.847 53.7303C81.847 54.3182 81.5041 54.7428 80.6794 55.2082L81.9123 56.384C82.0511 56.1145 82.1573 55.7879 82.2308 55.4205L83.0554 55.6899C82.9493 56.188 82.7778 56.6289 82.541 56.9963L83.2596 57.6822ZM80.3202 53.1996C79.8629 53.1996 79.5935 53.4527 79.5935 53.8038C79.5935 54.0569 79.6996 54.2447 80.1079 54.653C80.7692 54.2937 80.9815 54.0569 80.9815 53.7467C80.9815 53.4201 80.7447 53.1996 80.3202 53.1996ZM80.1324 57.5025C80.6059 57.5025 81.0224 57.3556 81.3734 57.0698L79.8629 55.6246C79.2016 55.992 78.973 56.2941 78.973 56.7024C78.973 57.176 79.4302 57.5025 80.1324 57.5025ZM90.6033 53.4282H87.4924V55.1674H90.2522V56.0655H87.4924V58.2537H86.431V52.5383H90.6033V53.4282ZM92.4237 54.5305C92.7176 54.0733 93.2483 53.8447 93.975 53.8447V54.8163C93.8852 54.8 93.8117 54.7918 93.7382 54.7918C92.9626 54.7918 92.4727 55.249 92.4727 56.139V58.2537H91.4521V53.8936H92.4237V54.5305ZM96.4826 53.8447C97.74 53.8447 98.4666 54.4407 98.4666 55.6981V58.2537H97.5032V57.723C97.2582 58.0986 96.7847 58.3109 96.1315 58.3109C95.1353 58.3109 94.5066 57.7638 94.5066 57.0045C94.5066 56.2778 94.9965 55.7063 96.3193 55.7063H97.446V55.6409C97.446 55.0449 97.0868 54.6938 96.3601 54.6938C95.8702 54.6938 95.364 54.8571 95.0374 55.1265L94.6373 54.3835C95.1027 54.0243 95.7804 53.8447 96.4826 53.8447ZM96.3437 57.5679C96.8418 57.5679 97.2746 57.3392 97.446 56.8902V56.384H96.3927C95.6987 56.384 95.5109 56.6452 95.5109 56.9637C95.5109 57.3311 95.8212 57.5679 96.3437 57.5679ZM103.172 53.8936H104.144V57.5924C104.144 59.1764 103.319 59.8949 101.792 59.8949C100.976 59.8949 100.167 59.6826 99.6694 59.2743L100.127 58.5068C100.51 58.8253 101.131 59.0294 101.735 59.0294C102.699 59.0294 103.123 58.5885 103.123 57.7067V57.4781C102.764 57.87 102.249 58.0578 101.662 58.0578C100.412 58.0578 99.4571 57.2086 99.4571 55.943C99.4571 54.6775 100.412 53.8447 101.662 53.8447C102.274 53.8447 102.813 54.0406 103.172 54.4734V53.8936ZM101.817 57.1923C102.584 57.1923 103.139 56.6861 103.139 55.943C103.139 55.2082 102.584 54.7101 101.817 54.7101C101.041 54.7101 100.486 55.2082 100.486 55.943C100.486 56.6861 101.041 57.1923 101.817 57.1923ZM106.457 54.5305C106.751 54.0733 107.282 53.8447 108.009 53.8447V54.8163C107.919 54.8 107.845 54.7918 107.772 54.7918C106.996 54.7918 106.506 55.249 106.506 56.139V58.2537H105.486V53.8936H106.457V54.5305ZM110.516 53.8447C111.773 53.8447 112.5 54.4407 112.5 55.6981V58.2537H111.537V57.723C111.292 58.0986 110.818 58.3109 110.165 58.3109C109.169 58.3109 108.54 57.7638 108.54 57.0045C108.54 56.2778 109.03 55.7063 110.353 55.7063H111.48V55.6409C111.48 55.0449 111.12 54.6938 110.394 54.6938C109.904 54.6938 109.397 54.8571 109.071 55.1265L108.671 54.3835C109.136 54.0243 109.814 53.8447 110.516 53.8447ZM110.377 57.5679C110.875 57.5679 111.308 57.3392 111.48 56.8902V56.384H110.426C109.732 56.384 109.544 56.6452 109.544 56.9637C109.544 57.3311 109.855 57.5679 110.377 57.5679ZM116.284 53.8447C117.329 53.8447 118.105 54.4407 118.105 55.7552V58.2537H117.084V55.8859C117.084 55.1102 116.7 54.7346 116.047 54.7346C115.32 54.7346 114.831 55.1755 114.831 56.0492V58.2537H113.81V53.8936H114.782V54.457C115.116 54.0569 115.647 53.8447 116.284 53.8447ZM121.44 58.3109C120.06 58.3109 119.08 57.3801 119.08 56.0737C119.08 54.7673 120.06 53.8447 121.44 53.8447C122.289 53.8447 122.967 54.1957 123.301 54.8571L122.518 55.3143C122.256 54.8979 121.864 54.7101 121.432 54.7101C120.68 54.7101 120.109 55.2327 120.109 56.0737C120.109 56.9228 120.68 57.4372 121.432 57.4372C121.864 57.4372 122.256 57.2494 122.518 56.833L123.301 57.2903C122.967 57.9435 122.289 58.3109 121.44 58.3109ZM128.219 56.0982C128.219 56.1798 128.21 56.3023 128.202 56.4003H124.781C124.904 57.0371 125.434 57.4454 126.194 57.4454C126.684 57.4454 127.067 57.2903 127.378 56.9718L127.925 57.6005C127.533 58.0659 126.92 58.3109 126.169 58.3109C124.708 58.3109 123.761 57.3719 123.761 56.0737C123.761 54.7755 124.716 53.8447 126.014 53.8447C127.288 53.8447 128.219 54.7346 128.219 56.0982ZM126.014 54.6611C125.353 54.6611 124.871 55.0857 124.773 55.7226H127.247C127.165 55.0939 126.684 54.6611 126.014 54.6611ZM130.546 58.3109C129.82 58.3109 129.093 58.0986 128.701 57.821L129.093 57.0453C129.477 57.2984 130.064 57.4781 130.612 57.4781C131.257 57.4781 131.526 57.2984 131.526 56.9963C131.526 56.1635 128.832 56.9473 128.832 55.2082C128.832 54.3835 129.575 53.8447 130.75 53.8447C131.33 53.8447 131.991 53.9835 132.383 54.2202L131.991 54.9959C131.575 54.751 131.159 54.6693 130.742 54.6693C130.122 54.6693 129.828 54.8734 129.828 55.1592C129.828 56.041 132.522 55.2572 132.522 56.9637C132.522 57.7802 131.771 58.3109 130.546 58.3109Z" fill="#DB6423"/>
<path d="M71.342 21.2925V21.4961H87.9157V33.3949H71.342V48.3724H55.5664V21.6264C55.5664 8.05794 64.2564 0.5 79.4293 0.5C84.9104 0.5 89.9273 1.56691 93.3317 3.37495L88.7871 15.2738C86.1809 13.873 83.1757 13.2703 80.765 13.2703C74.8196 13.2703 71.342 15.7462 71.342 21.2925Z" fill="#DB6423"/>
<path d="M111.444 21.2925V21.4961H128.017V33.3949H111.444V48.3724H95.668V21.6264C95.668 8.05794 104.358 0.5 119.531 0.5C125.02 0.5 130.029 1.56691 133.441 3.37495L128.897 15.2738C126.291 13.873 123.285 13.2703 120.875 13.2703C114.929 13.2703 111.452 15.7462 111.452 21.2925H111.444Z" fill="#DB6423"/>
<path d="M25.6855 0.5C12.0519 0.5 2.62891 8.79093 2.62891 23.4263V48.3642H18.1357V38.9412H32.9747V48.3642H48.7502V23.4263C48.7502 8.79093 39.3273 0.5 25.6855 0.5ZM25.7181 28.4432C22.3708 28.4432 19.6668 25.5845 19.6668 22.4164C19.6668 18.3198 25.7181 11.2179 25.7181 11.2179C25.7181 11.2179 31.7693 18.0592 31.7693 22.4164C31.7693 25.5845 29.0573 28.4432 25.7181 28.4432Z" fill="#DB6423"/>
</svg>
